<svg width="115" height="30" viewBox="0 0 115 30" fill="none" xmlns="http://www.w3.org/2000/svg">
<g clip-path="url(#clip0_462_232)">
<path d="M15.0005 0.406616H14.9997C6.94022 0.406616 0.406738 6.9401 0.406738 14.9996V15.0004C0.406738 23.0598 6.94022 29.5933 14.9997 29.5933H15.0005C23.06 29.5933 29.5934 23.0598 29.5934 15.0004V14.9996C29.5934 6.9401 23.06 0.406616 15.0005 0.406616Z" fill="url(#paint0_linear_462_232)"/>
<path d="M12.8877 19.197L13.2082 19.1319C13.2979 19.1139 13.3787 19.0654 13.4367 18.9946C13.4947 18.9238 13.5264 18.8351 13.5264 18.7435C13.5264 18.652 13.4947 18.5633 13.4367 18.4925C13.3787 18.4217 13.2979 18.3732 13.2082 18.3552L12.8877 18.2901C12.4926 18.2099 12.1298 18.0152 11.8448 17.7301C11.5597 17.445 11.3649 17.0823 11.2847 16.6871L11.2197 16.3667C11.2017 16.2769 11.1531 16.1962 11.0824 16.1382C11.0116 16.0801 10.9228 16.0485 10.8313 16.0485C10.7398 16.0485 10.6511 16.0801 10.5803 16.1382C10.5095 16.1962 10.4609 16.2769 10.443 16.3667L10.3779 16.6871C10.2977 17.0823 10.1029 17.445 9.81786 17.7301C9.53277 18.0152 9.17002 18.2099 8.77489 18.2901L8.45446 18.3552C8.36471 18.3732 8.28396 18.4217 8.22594 18.4925C8.16793 18.5633 8.13623 18.652 8.13623 18.7435C8.13623 18.8351 8.16793 18.9238 8.22594 18.9946C8.28396 19.0654 8.36471 19.1139 8.45446 19.1319L8.77489 19.197C9.17002 19.2771 9.53277 19.4719 9.81786 19.757C10.1029 20.0421 10.2977 20.4048 10.3779 20.7999L10.443 21.1204C10.4609 21.2101 10.5095 21.2909 10.5803 21.3489C10.6511 21.4069 10.7398 21.4386 10.8313 21.4386C10.9228 21.4386 11.0116 21.4069 11.0824 21.3489C11.1531 21.2909 11.2017 21.2101 11.2197 21.1204L11.2847 20.7999C11.3649 20.4048 11.5597 20.0421 11.8448 19.757C12.1298 19.4719 12.4926 19.2771 12.8877 19.197Z" fill="white"/>
<path d="M20.6545 13.3941L21.8338 13.155C21.9515 13.1309 22.0572 13.0669 22.1332 12.9739C22.2092 12.8808 22.2506 12.7643 22.2506 12.6442C22.2506 12.5241 22.2092 12.4076 22.1332 12.3146C22.0572 12.2215 21.9515 12.1575 21.8338 12.1335L20.6545 11.8944C20.0864 11.7791 19.5648 11.499 19.1549 11.0891C18.745 10.6792 18.4649 10.1576 18.3496 9.58948L18.1105 8.4102C18.0869 8.29228 18.0231 8.18618 17.9301 8.10995C17.837 8.03372 17.7205 7.99207 17.6002 7.99207C17.4799 7.99207 17.3633 8.03372 17.2703 8.10995C17.1773 8.18618 17.1135 8.29228 17.0898 8.4102L16.8507 9.58948C16.7355 10.1576 16.4555 10.6793 16.0456 11.0892C15.6357 11.4991 15.114 11.7792 14.5459 11.8944L13.3666 12.1335C13.2489 12.1575 13.1431 12.2215 13.0672 12.3146C12.9912 12.4076 12.9497 12.5241 12.9497 12.6442C12.9497 12.7643 12.9912 12.8808 13.0672 12.9739C13.1431 13.0669 13.2489 13.1309 13.3666 13.155L14.5459 13.3941C15.114 13.5093 15.6357 13.7893 16.0456 14.1992C16.4555 14.6092 16.7355 15.1308 16.8507 15.699L17.0898 16.8782C17.1135 16.9962 17.1773 17.1022 17.2703 17.1785C17.3633 17.2547 17.4799 17.2964 17.6002 17.2964C17.7205 17.2964 17.837 17.2547 17.9301 17.1785C18.0231 17.1022 18.0869 16.9962 18.1105 16.8782L18.3496 15.699C18.4649 15.1308 18.745 14.6093 19.1549 14.1994C19.5648 13.7894 20.0864 13.5094 20.6545 13.3941Z" fill="white"/>
</g>
<path d="M41.0981 21V11.46H43.2581V12.882C43.4741 12.462 43.8221 12.084 44.3021 11.748C44.7941 11.412 45.3581 11.244 45.9941 11.244C46.7621 11.244 47.3621 11.4 47.7941 11.712C48.2381 12.024 48.5501 12.438 48.7301 12.954C48.9941 12.45 49.3721 12.042 49.8641 11.73C50.3681 11.406 50.9621 11.244 51.6461 11.244C52.6541 11.244 53.4221 11.538 53.9501 12.126C54.4901 12.714 54.7601 13.602 54.7601 14.79V21H52.3841V15.33C52.3841 14.574 52.2581 14.04 52.0061 13.728C51.7661 13.416 51.3761 13.26 50.8361 13.26C50.5241 13.26 50.2361 13.344 49.9721 13.512C49.7081 13.668 49.4921 13.902 49.3241 14.214C49.1681 14.526 49.0901 14.898 49.0901 15.33V21H46.7321V15.33C46.7321 14.574 46.6061 14.04 46.3541 13.728C46.1141 13.416 45.7241 13.26 45.1841 13.26C44.8721 13.26 44.5781 13.344 44.3021 13.512C44.0381 13.668 43.8281 13.902 43.6721 14.214C43.5281 14.526 43.4561 14.898 43.4561 15.33V21H41.0981Z" fill="black"/>
<path d="M59.1521 21.216C58.4681 21.216 57.8861 21.09 57.4061 20.838C56.9261 20.574 56.5601 20.214 56.3081 19.758C56.0561 19.302 55.9301 18.786 55.9301 18.21C55.9301 17.25 56.2121 16.53 56.7761 16.05C57.3521 15.57 58.2101 15.33 59.3501 15.33H62.1941V14.88C62.1941 14.256 62.0501 13.818 61.7621 13.566C61.4861 13.314 61.0421 13.188 60.4301 13.188C59.8901 13.188 59.5001 13.284 59.2601 13.476C59.0201 13.656 58.8821 13.884 58.8461 14.16H56.4701C56.5061 13.608 56.6801 13.116 56.9921 12.684C57.3161 12.24 57.7721 11.892 58.3601 11.64C58.9601 11.376 59.6801 11.244 60.5201 11.244C61.3361 11.244 62.0441 11.364 62.6441 11.604C63.2561 11.844 63.7301 12.234 64.0661 12.774C64.4021 13.302 64.5701 14.016 64.5701 14.916V18.57C64.5701 19.074 64.5761 19.518 64.5881 19.902C64.6121 20.274 64.6481 20.64 64.6961 21H62.4821C62.4341 20.736 62.4041 20.538 62.3921 20.406C62.3921 20.262 62.3921 20.052 62.3921 19.776C62.1401 20.16 61.7441 20.496 61.2041 20.784C60.6641 21.072 59.9801 21.216 59.1521 21.216ZM59.8901 19.38C60.2741 19.38 60.6401 19.314 60.9881 19.182C61.3481 19.038 61.6361 18.822 61.8521 18.534C62.0801 18.234 62.1941 17.856 62.1941 17.4V16.95H59.8001C59.3441 16.95 58.9841 17.058 58.7201 17.274C58.4681 17.478 58.3421 17.76 58.3421 18.12C58.3421 18.504 58.4741 18.81 58.7381 19.038C59.0021 19.266 59.3861 19.38 59.8901 19.38Z" fill="black"/>
<path d="M70.2437 24.816C69.2357 24.816 68.4317 24.69 67.8317 24.438C67.2317 24.198 66.7877 23.862 66.4997 23.43C66.2237 22.998 66.0617 22.488 66.0137 21.9H68.4257C68.4977 22.152 68.6597 22.386 68.9117 22.602C69.1637 22.83 69.6077 22.944 70.2437 22.944C71.0477 22.944 71.6477 22.752 72.0437 22.368C72.4397 21.984 72.6377 21.408 72.6377 20.64V19.488C72.3377 19.956 71.9357 20.334 71.4317 20.622C70.9277 20.898 70.3517 21.036 69.7037 21.036C68.8757 21.036 68.1557 20.856 67.5437 20.496C66.9437 20.136 66.4757 19.602 66.1397 18.894C65.8157 18.174 65.6537 17.286 65.6537 16.23V15.87C65.6537 14.874 65.8157 14.034 66.1397 13.35C66.4757 12.666 66.9497 12.144 67.5617 11.784C68.1737 11.424 68.8877 11.244 69.7037 11.244C70.4957 11.244 71.1497 11.406 71.6657 11.73C72.1817 12.054 72.5597 12.432 72.7997 12.864V11.46H74.9957V20.46C74.9957 21.876 74.6057 22.956 73.8257 23.7C73.0457 24.444 71.8517 24.816 70.2437 24.816ZM70.2617 19.02C70.7417 19.02 71.1557 18.936 71.5037 18.768C71.8637 18.588 72.1397 18.312 72.3317 17.94C72.5357 17.568 72.6377 17.118 72.6377 16.59V15.51C72.6377 15.006 72.5357 14.592 72.3317 14.268C72.1277 13.944 71.8457 13.698 71.4857 13.53C71.1257 13.35 70.7177 13.26 70.2617 13.26C69.6137 13.26 69.0857 13.482 68.6777 13.926C68.2697 14.358 68.0657 15.006 68.0657 15.87V16.23C68.0657 17.154 68.2757 17.85 68.6957 18.318C69.1157 18.786 69.6377 19.02 70.2617 19.02Z" fill="black"/>
<path d="M76.8359 21V11.46H79.1939V21H76.8359ZM78.0059 10.542C77.5859 10.542 77.2379 10.41 76.9619 10.146C76.6979 9.882 76.5659 9.54 76.5659 9.12C76.5659 8.7 76.6979 8.358 76.9619 8.094C77.2379 7.83 77.5799 7.698 77.9879 7.698C78.4199 7.698 78.7679 7.83 79.0319 8.094C79.3079 8.358 79.4459 8.7 79.4459 9.12C79.4459 9.54 79.3079 9.882 79.0319 10.146C78.7679 10.41 78.4259 10.542 78.0059 10.542Z" fill="black"/>
<path d="M85.2146 21.216C84.3386 21.216 83.5466 21.036 82.8386 20.676C82.1306 20.304 81.5666 19.758 81.1466 19.038C80.7386 18.306 80.5346 17.4 80.5346 16.32V15.96C80.5346 14.928 80.7506 14.064 81.1826 13.368C81.6146 12.672 82.1846 12.144 82.8926 11.784C83.6006 11.424 84.3746 11.244 85.2146 11.244C86.1146 11.244 86.8766 11.394 87.5006 11.694C88.1246 11.994 88.6046 12.408 88.9406 12.936C89.2886 13.464 89.4866 14.046 89.5346 14.682H87.1226C87.0266 14.25 86.8286 13.908 86.5286 13.656C86.2406 13.392 85.8026 13.26 85.2146 13.26C84.8066 13.26 84.4286 13.356 84.0806 13.548C83.7446 13.74 83.4686 14.034 83.2526 14.43C83.0486 14.826 82.9466 15.336 82.9466 15.96V16.32C82.9466 16.992 83.0426 17.544 83.2346 17.976C83.4386 18.396 83.7086 18.708 84.0446 18.912C84.3926 19.104 84.7826 19.2 85.2146 19.2C85.6826 19.2 86.0846 19.08 86.4206 18.84C86.7686 18.588 87.0026 18.234 87.1226 17.778H89.5346C89.4626 18.462 89.2346 19.068 88.8506 19.596C88.4666 20.124 87.9566 20.526 87.3206 20.802C86.6966 21.078 85.9946 21.216 85.2146 21.216Z" fill="black"/>
<path d="M89.7048 21L94.3848 8.4H97.0668L101.765 21H98.9208L97.9488 18.426H93.2868L92.3328 21H89.7048ZM94.1148 16.194H97.1388L95.6268 11.82L94.1148 16.194Z" fill="black"/>
<path d="M103.033 21V8.4H105.715V21H103.033Z" fill="black"/>
<defs>
<linearGradient id="paint0_linear_462_232" x1="29.5934" y1="15" x2="0.085684" y2="11.7602" gradientUnits="userSpaceOnUse">
<stop stop-color="#8D65E9"/>
<stop offset="0.483" stop-color="#5391E4"/>
<stop offset="1" stop-color="#6BCD94"/>
</linearGradient>
<clipPath id="clip0_462_232">
<rect width="30" height="30" fill="white"/>
</clipPath>
</defs>
</svg>
